<?xml version="1.0" encoding="UTF-8"?><svg id="a" xmlns="http://www.w3.org/2000/svg" viewBox="0 0 289.02 113.33"><defs><style>.b{fill:#1d1d1b;stroke-width:0px;}</style></defs><path class="b" d="M196.03,38.66l-1.81,2.3-9.97-3.96,3.03-4.19,8.76,5.85Z"/><path class="b" d="M59.24,28.48c-.06,0-.11.11-.17.17-2.28,1.37-4.51,2.74-6.79,4.11-.17.11-.34-.34-.46-.51-.34-.97-.8-1.88-1.54-2.51-1.03-.91-2.39-1.48-3.71-1.82-1.77-.46-3.59-.63-5.42-.51-.29,0-1.08,0-1.26.23-.86,1.14-1.54,2.45-2,3.82-1.03,3.31-.57,8.44,2.51,10.09,1.31.74,3.08.63,4.62.34,2.39-.46,4.79-1.25,7.18-.91,1.37.17,2.57.97,3.65,1.77.97.68,1.71,1.6,2.4,2.57.51.74.97,1.54,1.25,2.4.57,1.71.57,3.54.57,5.3-.06,1.77-.46,3.65-1.48,5.08-.4.57-.97,1.03-1.54,1.43-2.22,1.43-4.45,2.85-6.67,4.28-.97.57-2.05,1.03-3.08,1.48,1.94,3.02,3.93,5.99,6.44,8.61,5.87,6.16,14.26,10.55,22.7,11.8,4.62.68,9.52.23,14.03-1.03.91-1.14,1.03-2.74.8-4.16-.29-2.22-1.54-4.51-3.19-6.04-1.94-1.77-4.96-2.51-7.58-2.22-.74,1.14-1.14,2.74-.86,4.05.11.29.29.51.46.74-2.4,1.25-4.73,2.51-7.07,3.76-.34-.29-.8-1.43-.86-1.88-.17-1.2.11-2.45.68-3.48.57-.91,1.48-1.71,2.51-2.17.91-.46,6.67-3.14,7.58-3.54,1.2-.57,2.51-.97,3.88-1.2,1.6-.29,3.25-.06,4.85.34,1.48.34,2.96,1.2,4.05,2.4,1.43,1.54,2.4,3.54,2.79,5.65.29,1.37.29,3.08-.57,4.22-1.2,1.6-8.1,4.96-9.81,5.93-2.28,1.25-4.73,2.22-7.24,2.68-3.65.68-7.41.86-11.06.4-2.62-.34-5.25-1.14-7.76-2.05-5.42-2-10.44-5.19-14.48-9.3-3.36-3.31-5.93-7.36-8.38-11.41-1.94.34-3.93.57-5.87.63-1.65.11-3.25.11-4.85-.11-2.4-.34-4.45-2-6.27-3.54-1.6-1.37-2.91-3.14-3.48-5.13-.29-.86-.46-1.88,0-2.62.23-.4.63-.74,1.08-.97,2.22-1.43,4.45-2.85,6.73-4.33,1.2-.74,2.74-1.08,4.16-1.2,2.11-.23,4.45.17,6.22,1.25,2.45,1.48,4.22,3.99,5.76,6.44.97,1.65,2,3.31,3.02,4.9,2.17-.34,4.33-.91,6.44-1.54.68-1.54.97-3.25.97-4.9,0-1.37-.06-2.79-.4-4.11-.51-2.17-2.22-4.05-4.11-5.19-.68-.4-1.37-.8-2.17-1.03-1.08-.23-2.22-.17-3.36-.06-.68.11-4.73,1.03-5.42,1.08-1.37.11-2.85,0-3.93-.74-1.31-.91-2.22-2.45-2.79-3.93-1.08-2.91-.57-6.56.86-9.3.91-1.71,2.22-3.31,3.88-4.33,2.17-1.31,4.33-2.62,6.56-3.99,1.37-.86,2.96-1.43,4.56-1.71,2.85-.46,6.05,0,8.67,1.25.91.46,1.77,1.2,2.28,2.05M36.71,63.38c-1.54-2.51-3.14-5.13-5.53-6.9-1.6-1.14-3.65-1.71-5.65-1.77.23,1.03.63,2.05,1.26,2.91,1.48,2.05,3.59,3.59,5.82,4.79,1.2.68,2.74.86,4.11.97Z"/><path class="b" d="M69.88,67.84c-.2-.1-.9-.9-1.05-1-.35-.25-1.7-.3-2.1-.3s-1.95.05-2.35.25c-.05,0-.3-.2-.3-.3-.1-1.7-.1-10.8,0-12.45.15-2.05.5-4.15,1-6.1-.65,0-1.3.05-1.95.1-.15,0-.65.2-.75.15-.05,0-.25-.3-.25-.3,1.35-1.05,2.7-2.1,4.05-3.1.55-1.4,1.15-2.75,1.95-4,.05-.1.15-.1.05-.25,0,0,.1-.05.1-.1-.1-.2,0-.45.05-.7,1.95-1.2,3.95-2.4,5.95-3.6.05-.05.25.25.2.35,0,.1-.05.4-.15.45,0,.05-.2.15-.25.15-.25.25-.85,1.4-.95,1.7-.75,1.5-1.35,3-1.9,4.55.8,0,4.15-.05,4.95.2-.05,0-.1-.05-.15-.05-.05.05.25.3.25.3-1.9,1.4-3.75,2.75-5.65,4.1-.05.1-.45.1-.55.1-.25,1.65-.4,3.3-.4,4.95-.05,1.1-.2,7.6-.2,8.65.8-.2,3.25-.3,4,.05.2.1.85.8,1,.95.05.05.1,0,.1,0,.1.1.4.3.3.4-1.7,1.6-3.35,3.25-5,4.85Z"/><path class="b" d="M82.23,67.89c-.88-.64-2.06-.88-3.14-1.13-.29-.1-.54-.39-.64-.64-.15-.78.59-3.63.74-4.36.59-3.28.69-6.66.54-10.05-.05-.93-.1-1.86-.44-2.74-.05-.1-.34-.29-.49-.34-.39-.1-.83,0-1.18.15-.1,0-.34-.29-.29-.29,1.86-1.37,3.68-2.7,5.54-4.02.1-.05.54-.15.69-.2.78-.2,1.42.59,1.67,1.37.15.59.2,1.18.25,1.76.29-.29.59-.59.93-.83,1.47-1.03,2.99-2.06,4.51-3.09.2-.15.49-.34.78-.25.15.1.59.64.74.74,1.42,1.62,2.45,3.48,3.68,5.24-1.67,1.52-3.38,3.04-5.05,4.56-.15.1-.25-.15-.34-.29-.49-.74-3.04-4.46-3.63-5.1-.1-.15-.25-.29-.39-.2-.34.29-.74.54-1.13.83.1,3.38-.1,6.86-.83,10.19-.2.98-.44,2.01-.49,2.99.59.1,1.18.29,1.76.49.64.2,1.27.44,1.67.93-.69.54-4.75,3.77-5.44,4.26Z"/><path class="b" d="M125.63,67.84c-.2-.1-.9-.9-1.05-1-.35-.25-1.7-.3-2.1-.3s-1.95.05-2.35.25c-.05,0-.3-.2-.3-.3-.1-1.7-.1-10.8,0-12.45.15-2.05.5-4.15,1-6.1-.65,0-1.3.05-1.95.1-.15,0-.65.2-.75.15-.05,0-.25-.3-.25-.3,1.35-1.05,2.7-2.1,4.05-3.1.55-1.4,1.15-2.75,1.95-4,.05-.1.15-.1.05-.25,0,0,.1-.05.1-.1-.1-.2,0-.45.05-.7,1.95-1.2,3.95-2.4,5.95-3.6.05-.05.25.25.2.35,0,.1-.05.4-.15.45,0,.05-.2.15-.25.15-.25.25-.85,1.4-.95,1.7-.75,1.5-1.35,3-1.9,4.55.8,0,4.15-.05,4.95.2-.05,0-.1-.05-.15-.05-.05.05.25.3.25.3-1.9,1.4-3.75,2.75-5.65,4.1-.05.1-.45.1-.55.1-.25,1.65-.4,3.3-.4,4.95-.05,1.1-.2,7.6-.2,8.65.8-.2,3.25-.3,4,.05.2.1.85.8,1,.95.05.05.1,0,.1,0,.1.1.4.3.3.4-1.7,1.6-3.35,3.25-5,4.85Z"/><path class="b" d="M252.22,67.66c-2.18-.13-3.54-2.66-2.36-4.54,1.66-1.14,3.36-2.23,5.02-3.36.17-.09.26.13.35.26.04.04-.17.09-.17.17-.44.79-.44,1.88-.04,2.66.31.57,1.48,1.09,2.1,1.14,1.13.09,2.27-.09,3.36-.31.26-.61.35-1.27.39-1.88.09-1.18,0-2.36-.17-3.49-.04-.31-.31-1.27-.48-1.48-.26-.26-1.27-.26-1.66-.26-2.23-.09-4.41.7-6.63.92-.17,0-.74.09-.92,0-.61-.44-.22-1.88-.09-2.62.39-2.53,1.35-5.11,2.88-7.16.35-.48.7-1,1.22-1.31.65-.35,4.71-2.62,5.41-2.97s1.57-.31,2.31-.22c1.96.26,3.49,1.31,4.45,3.06.44.74.83,1.57,1.05,2.44-1.79.96-3.54,1.96-5.33,2.92-.13.09-.22-.17-.26-.35,0,0,.04,0,.04-.04-.31-1.22-.92-2.44-1.83-3.27-.74-.61-1.61-1.14-2.58-1.35-1.18,2.18-2.14,4.67-2.31,7.16.79,0,4.67-.74,5.46-.83.65-.09,2.84-.26,3.45.04.39.17.83,1.22.92,1.66.44,1.53.44,3.1.31,4.67-.13.87-.52,1.7-1.09,2.4-.44.52-.96.96-1.53,1.35-1.66,1.05-3.27,2.14-4.89,3.23-.48.31-1,.52-1.53.65-1.57.48-3.23.83-4.85.7Z"/><path class="b" d="M114.19,61.11c-.14,1.95.78,3.02,2.64,3.15l-.26,1.08-4.22,2.25-4.33-3.73c-2.01,1.31-4.1,2.48-6.54,3.49-3.13-.87-5.03-2.96-4.78-6.41.19-2.63,1.39-4.78,5.12-5.92l6.94-2.09.07-.95c.13-1.86-.79-2.88-1.98-3.52-2.09,1.12-4.65,1.85-7.68,2.18-.14-.56-.55-1.18-1.02-1.71,3.87-1.22,6.88-3.06,9.02-5.59,2.56,2.42,5.06,4.42,7.86,6.04l-.85,11.74ZM105.82,55.85c-2.11.76-3.11,2.6-3.22,4.14-.13,1.72.76,2.65,2.61,3.01,1.11-.19,1.95-.5,2.9-.97l.52-7.21-2.81,1.03Z"/><path class="b" d="M151.42,61.11c-.14,1.95.78,3.02,2.64,3.15l-.26,1.08-4.22,2.25-4.33-3.73c-2.01,1.31-4.1,2.48-6.54,3.49-3.13-.87-5.03-2.96-4.78-6.41.19-2.63,1.39-4.78,5.12-5.92l6.94-2.09.07-.95c.13-1.86-.79-2.88-1.98-3.52-2.09,1.12-4.65,1.85-7.68,2.18-.14-.56-.55-1.18-1.02-1.71,3.87-1.22,6.88-3.06,9.02-5.59,2.56,2.42,5.06,4.42,7.86,6.04l-.85,11.74ZM143.05,55.85c-2.11.76-3.11,2.6-3.22,4.14-.13,1.72.76,2.65,2.61,3.01,1.11-.19,1.95-.5,2.9-.97l.52-7.21-2.81,1.03Z"/><path class="b" d="M171.04,59.07c-.37,3.38-.32,3.95-.38,7.32-.09,4.72-.72,9.69-2.88,13.85-1.51,2.84-3.86,5.48-6.79,6.76-2.45,1.05-5.61,1.16-7.97,0-.53-1.56-.69-3.33-.41-4.97.34-2.04,2.04-4.45,4.1-4.53.38.48.73.89,1.11,1.37.08.08.37-.2.37-.36,0-.21-.19-.78-.35-.94-1.45-1.78-2.96-3.58-4.41-5.37-.2-.21-.53-.31-.84-.35-1.93,0-4,2.42-4.6,4.28-.57,1.92-.34,4.17.39,6.11.35.94.84,1.92,1.5,2.68.68.88,4.52,5.55,5.33,6.31.65.61,1.48,1.17,2.36,1.53,2.21.81,4.87.81,7.14.02,1.59-.63,3.03-1.61,4.3-2.75,1.65-1.55,3.09-3.42,4.05-5.43,1.42-2.87,2.06-6.12,2.38-9.31.35-3.49.69-7.17.68-10.66-.04-2.88.25-4.61.25-7.93"/><path class="b" d="M185.75,59.47c1.84,2.03,3.78,2.86,5.99,2.86,1.43,0,2.76-.37,4.1-1.06l.74.46c-2.07,3.5-4.74,5.39-7.88,5.89-5.07-1.52-8.84-5.89-8.84-11.47s3.82-8.57,9.67-12.94c2.44,1.52,4.56,3.59,6.26,6.22l-10.04,10.04ZM190.04,52.66c-.64-2.44-2.26-3.78-4.88-4.01-.83,2.07-1.24,3.96-1.24,5.57,0,1.29.28,2.49.78,3.73l5.34-5.3Z"/><path class="b" d="M237.12,59.37c1.84,2.03,3.78,2.86,5.99,2.86,1.43,0,2.76-.37,4.1-1.06l.74.46c-2.07,3.5-4.74,5.39-7.88,5.89-5.07-1.52-8.84-5.89-8.84-11.47s3.82-8.57,9.67-12.94c2.44,1.52,4.56,3.59,6.26,6.22l-10.04,10.04ZM241.4,52.56c-.64-2.44-2.26-3.78-4.88-4.01-.83,2.07-1.24,3.96-1.24,5.57,0,1.29.28,2.49.78,3.73l5.34-5.3Z"/><path class="b" d="M210.76,67.78s-.15-.2-.24-.29c0-.05,0-.34.05-.44.05-3.71.49-7.42.78-11.09.24-3.03.44-6.11,0-9.13,0-.05,0-.15-.05-.15-.24-.05-1.07.34-1.32.44-.73.29-1.51.63-2.25.93-.24,2.59-.49,5.18-.49,7.77-.05,1.12.2,7.03,0,8.16-1.9,1.22-3.81,2.49-5.71,3.71-.15-.2-.29-.44-.24-.73,0-3.52-.24-7.03-.05-10.6.05-1.12.64-7.28.59-8.4,0-.05-.05-.29-.05-.34-.05-.1-.34-.15-.49-.15-.83-.1-1.71-.2-2.49.1-.15.05-.2-.2-.29-.29,0-.05,0-.29.05-.29,1.91-1.17,3.86-2.3,5.81-3.47.1-.05.1.24.2.2.59-.2,1.27-.15,1.91-.1.24,0,.93.05,1.07.29.1.15.2.24.24.39.34.54.05,2.54,0,3.13,1.76-.93,3.52-1.9,5.32-2.69,1.17-.54,2.34-1.03,3.52-1.47.1-.05.39-.15.49-.15.24.05.39.44.49.68.15.59.29,3.18.29,3.76.34-.2,2.05-1.32,2.39-1.51,1.91-.88,3.81-1.81,5.76-2.74,1.27-.63,1.76,1.32,1.86,2.78.2,3.47-.78,6.99-1.17,10.45-.29,2.59-.39,5.23-.44,7.82-.78.39-5.28,2.88-6.06,3.27-.15-.24-.29-.54-.29-.83-.15-2.83,0-5.72.39-8.6.34-2.88,1.03-5.71,1.07-8.6.05-.88.05-1.76-.15-2.64-.24.2-1.12.83-1.27,1.03-.24.39-1.71.93-2.1,1.12-.15,4.25-.68,8.45-.98,12.65,0,.29-.1,2.15-.1,2.49-.05.05-.1.1-.15.15-2,1.12-3.96,2.25-5.91,3.37ZM226.44,43.21h-.1s0,.05.1,0Z"/><path class="b" d="M170.84,64.58v-1.47c-2.89,1.13-3.83,2.22-5.82,4.44-6.05,0-8.8-4.16-8.8-9.22,0-6.48,4.44-14.19,11.49-15.32,2.41,3.36,4.73,5.53,9.32,6.29l-.91,14.19M170.84,57.44c0-3.5-.8-7.66-8.42-7.66-.52,0-.9,0-1.42.05-.52,1.18-.81,2.32-.81,3.55,0,4.21,3.59,7.99,8.13,7.99.85,0,1.56-.14,2.51-.38v-3.55Z"/></svg>